<svg xmlns="http://www.w3.org/2000/svg" version="1.1" xmlns:xlink="http://www.w3.org/1999/xlink" xmlns:svgjs="http://svgjs.dev/svgjs" width="1500" height="939" viewBox="0 0 1500 939"><g transform="matrix(1,0,0,1,-0.9090909090909918,-1.5145161290323017)"><svg viewBox="0 0 396 248" data-background-color="#000000" preserveAspectRatio="xMidYMid meet" height="939" width="1500" xmlns="http://www.w3.org/2000/svg" xmlns:xlink="http://www.w3.org/1999/xlink"><g id="tight-bounds" transform="matrix(1,0,0,1,0.2400000000000091,0.4000000000000057)"><svg viewBox="0 0 395.52 247.2" height="247.2" width="395.52"><g><svg></svg></g><g><svg viewBox="0 0 395.52 247.2" height="247.2" width="395.52"><g transform="matrix(1,0,0,1,98.45976,47.215199999999996)"><svg viewBox="0 0 198.60047999999998 152.7696" height="152.7696" width="198.60047999999998"><g><svg viewBox="0 0 198.60047999999998 152.7696" height="152.7696" width="198.60047999999998"><g><svg viewBox="0 0 198.60047999999998 152.7696" height="152.7696" width="198.60047999999998"><g id="textblocktransform"><svg viewBox="0 0 198.60047999999998 152.7696" height="152.7696" width="198.60047999999998" id="textblock"><g><svg viewBox="0 0 198.60047999999998 152.7696" height="152.7696" width="198.60047999999998"><g transform="matrix(1,0,0,1,0,0)"><svg width="198.60047999999998" viewBox="1.7999999999999998 -28 36.400000000000006 28" height="152.7696" data-palette-color="#8000ff"><path d="M17.2-26Q17.2-24.85 17-24L17-24 14-24Q14.2-23.2 14.2-22L14.2-22Q14.2-20.85 14-20L14-20Q14.2-19.2 14.2-18L14.2-18Q14.2-16.85 14-16L14-16Q14.2-15.2 14.2-14L14.2-14Q14.2-12.85 14-12L14-12Q14.2-11.2 14.2-10L14.2-10Q14.2-8.85 14-8L14-8Q14.2-7.2 14.2-6L14.2-6Q14.2-4.85 14-4L14-4 12-4Q12.2-3.2 12.2-2L12.2-2Q12.2-0.85 12 0L12 0 4 0Q3.8-0.85 3.8-2L3.8-2Q3.8-3.2 4-4L4-4 2-4Q1.8-4.85 1.8-6L1.8-6Q1.8-7.2 2-8L2-8 6-8Q6.2-7.2 6.2-6L6.2-6Q6.2-4.85 6-4L6-4 10-4Q9.8-4.85 9.8-6L9.8-6Q9.8-7.2 10-8L10-8Q9.8-8.85 9.8-10L9.8-10Q9.8-11.2 10-12L10-12Q9.8-12.85 9.8-14L9.8-14Q9.8-15.2 10-16L10-16Q9.8-16.85 9.8-18L9.8-18Q9.8-19.2 10-20L10-20Q9.8-20.85 9.8-22L9.8-22Q9.8-23.2 10-24L10-24 7-24Q6.8-24.85 6.8-26L6.8-26Q6.8-27.2 7-28L7-28 17-28Q17.2-27.2 17.2-26L17.2-26ZM38-12Q38.2-11.2 38.2-10L38.2-10Q38.2-8.85 38-8L38-8Q38.2-7.2 38.2-6L38.2-6Q38.2-4.85 38-4L38-4 36-4Q36.2-3.2 36.2-2L36.2-2Q36.2-0.85 36 0L36 0 24 0Q23.8-0.85 23.8-2L23.8-2Q23.8-3.2 24-4L24-4 22-4Q21.8-4.85 21.8-6L21.8-6Q21.8-7.2 22-8L22-8 26-8Q26.2-7.2 26.2-6L26.2-6Q26.2-4.85 26-4L26-4 34-4Q33.8-4.85 33.8-6L33.8-6Q33.8-7.2 34-8L34-8Q33.8-8.85 33.8-10L33.8-10Q33.8-11.2 34-12L34-12 24-12Q23.8-12.85 23.8-14L23.8-14Q23.8-15.2 24-16L24-16 22-16Q21.8-16.85 21.8-18L21.8-18Q21.8-19.2 22-20L22-20Q21.8-20.85 21.8-22L21.8-22Q21.8-23.2 22-24L22-24 24-24Q23.8-24.85 23.8-26L23.8-26Q23.8-27.2 24-28L24-28 36-28Q36.2-27.2 36.2-26L36.2-26Q36.2-24.85 36-24L36-24 38-24Q38.2-23.2 38.2-22L38.2-22Q38.2-20.85 38-20L38-20 34-20Q33.8-20.85 33.8-22L33.8-22Q33.8-23.2 34-24L34-24 26-24Q26.2-23.2 26.2-22L26.2-22Q26.2-20.85 26-20L26-20Q26.2-19.2 26.2-18L26.2-18Q26.2-16.85 26-16L26-16 36-16Q36.2-15.2 36.2-14L36.2-14Q36.2-12.85 36-12L36-12 38-12Z" opacity="1" transform="matrix(1,0,0,1,0,0)" fill="#8000ff" class="wordmark-text-0" data-fill-palette-color="primary" id="text-0"></path></svg></g></svg></g></svg></g></svg></g></svg></g></svg></g><path d="M280.761 41.215L280.761 0 33.561 0 33.561 247.2 280.761 247.2 280.761 205.985 266.984 205.985 266.984 233.423 47.338 233.423 47.338 13.777 266.984 13.777 266.984 41.215Z" fill="#ffffff" stroke="transparent" data-fill-palette-color="tertiary"></path></svg></g><defs></defs></svg><rect width="395.52" height="247.2" fill="none" stroke="none" visibility="hidden"></rect></g></svg></g></svg>